HIERARCHY
ROOT Hips
{
	OFFSET 0.000000 0.000000 0.000000
	CHANNELS 6 Xposition Yposition Zposition Zrotation Yrotation Xrotation 
	JOINT LHipJoint
	{
		OFFSET 0.000000 0.000000 0.000000
		CHANNELS 3 Zrotation Yrotation Xrotation
		JOINT LeftUpLeg
		{
			OFFSET 1.363060 -1.794630 0.839290
			CHANNELS 3 Zrotation Yrotation Xrotation
			JOINT LeftLeg
			{
				OFFSET 2.448110 -6.726130 0.000000
				CHANNELS 3 Zrotation Yrotation Xrotation
				JOINT LeftFoot
				{
					OFFSET 2.562200 -7.039590 0.000000
					CHANNELS 3 Zrotation Yrotation Xrotation
					JOINT LeftToeBase
					{
						OFFSET 0.157640 -0.433110 2.322550
						CHANNELS 3 Zrotation Yrotation Xrotation
						End Site
						{
							OFFSET 0.000000 0.000000 0.000000
						}
					}
				}
			}
		}
	}
	JOINT RHipJoint
	{
		OFFSET 0.000000 0.000000 0.000000
		CHANNELS 3 Zrotation Yrotation Xrotation
		JOINT RightUpLeg
		{
			OFFSET -1.305520 -1.794630 0.839290
			CHANNELS 3 Zrotation Yrotation Xrotation
			JOINT RightLeg
			{
				OFFSET -2.542530 -6.985550 0.000000
				CHANNELS 3 Zrotation Yrotation Xrotation
				JOINT RightFoot
				{
					OFFSET -2.568260 -7.056230 0.000000
					CHANNELS 3 Zrotation Yrotation Xrotation
					JOINT RightToeBase
					{
						OFFSET -0.164730 -0.452590 2.363150
						CHANNELS 3 Zrotation Yrotation Xrotation
						End Site
						{
							OFFSET 0.000000 0.000000 0.000000
						}
					}
				}
			}
		}
	}
	JOINT LowerBack
	{
		OFFSET 0.000000 0.000000 0.000000
		CHANNELS 3 Zrotation Yrotation Xrotation
		JOINT Spine
		{
			OFFSET 0.028270 2.035590 -0.193380
			CHANNELS 3 Zrotation Yrotation Xrotation
			JOINT Spine1
			{
				OFFSET 0.056720 2.048850 -0.042750
				CHANNELS 3 Zrotation Yrotation Xrotation
				JOINT Neck
				{
					OFFSET 0.000000 0.000000 0.000000
					CHANNELS 3 Zrotation Yrotation Xrotation
					JOINT Neck1
					{
						OFFSET -0.054170 1.746240 0.172020
						CHANNELS 3 Zrotation Yrotation Xrotation
						JOINT Head
						{
							OFFSET 0.104070 1.761360 -0.123970
							CHANNELS 3 Zrotation Yrotation Xrotation
							End Site
							{
								OFFSET 0.000000 0.000000 0.000000
							}
						}
					}
				}
				JOINT LeftShoulder
				{
					OFFSET 0.000000 0.000000 0.000000
					CHANNELS 3 Zrotation Yrotation Xrotation
					JOINT LeftArm
					{
						OFFSET 3.362410 1.200890 -0.311210
						CHANNELS 3 Zrotation Yrotation Xrotation
						JOINT LeftForeArm
						{
							OFFSET 4.983000 -0.000000 -0.000000
							CHANNELS 3 Zrotation Yrotation Xrotation
							JOINT LeftHand
							{
								OFFSET 3.483560 -0.000000 -0.000000
								CHANNELS 3 Zrotation Yrotation Xrotation
								JOINT LeftFingerBase
								{
									OFFSET 0.000000 0.000000 0.000000
									CHANNELS 3 Zrotation Yrotation Xrotation
									JOINT LeftHandIndex1
									{
										OFFSET 0.715260 -0.000000 -0.000000
										CHANNELS 3 Zrotation Yrotation Xrotation
										End Site
										{
											OFFSET 0.000000 0.000000 0.000000
										}
									}
								}
								JOINT LThumb
								{
									OFFSET 0.000000 0.000000 0.000000
									CHANNELS 3 Zrotation Yrotation Xrotation
									End Site
									{
										OFFSET 0.000000 0.000000 0.000000
									}
								}
							}
						}
					}
				}
				JOINT RightShoulder
				{
					OFFSET 0.000000 0.000000 0.000000
					CHANNELS 3 Zrotation Yrotation Xrotation
					JOINT RightArm
					{
						OFFSET -3.136600 1.374050 -0.404650
						CHANNELS 3 Zrotation Yrotation Xrotation
						JOINT RightForeArm
						{
							OFFSET -5.241900 -0.000000 -0.000000
							CHANNELS 3 Zrotation Yrotation Xrotation
							JOINT RightHand
							{
								OFFSET -3.444170 -0.000000 -0.000000
								CHANNELS 3 Zrotation Yrotation Xrotation
								JOINT RightFingerBase
								{
									OFFSET 0.000000 0.000000 0.000000
									CHANNELS 3 Zrotation Yrotation Xrotation
									JOINT RightHandIndex1
									{
										OFFSET -0.622530 -0.000000 -0.000000
										CHANNELS 3 Zrotation Yrotation Xrotation
										End Site
										{
											OFFSET 0.000000 0.000000 0.000000
										}
									}
								}
								JOINT RThumb
								{
									OFFSET 0.000000 0.000000 0.000000
									CHANNELS 3 Zrotation Yrotation Xrotation
									End Site
									{
										OFFSET 0.000000 0.000000 0.000000
									}
								}
							}
						}
					}
				}
			}
		}
	}
}
MOTION
Frames: 5
Frame Time: 0.033333
0.215671 23.290442 -9.584595 4.387577 0.487374 20.525073 -10.600705 4.722145 8.353549 -0.819337 -19.055315 -65.443414 18.971453 -2.338453 93.196288 0.983106 -0.474484 6.678426 1.636778 -0.002200 -47.515718 12.325334 -3.847459 2.443726 -6.880417 10.195902 -28.976597 -20.333676 0.057945 124.402967 -1.754835 0.446267 4.507154 1.604505 0.098841 -69.888974 -8.379340 7.660974 -13.852819 -1.229095 -0.856790 -2.413519 -5.170760 0.642944 4.618628 7.828052 -7.900924 -7.353839 -1.374519 -0.375563 0.635631 -0.043490 -0.034478 0.078913 12.973160 10.064103 -0.120827 -29.272028 -54.812039 -43.324817 168.723713 -65.559608 -162.740317 29.030987 -13.407445 -3.671047 -0.177195 0.883223 0.084060 -0.009776 -0.033403 0.067960 -0.083286 0.111810 -0.087205 -2.171784 -27.996826 -3.398944 41.207906 41.073225 -38.934045 178.216108 48.389232 179.502228 -24.076465 17.615592 -3.964046 0.424422 -1.184954 -0.104117 0.036666 -0.018374 -0.036370 -0.020683 0.026027 -0.036706 
0.119207 23.552451 -9.211033 4.084920 1.316187 19.376768 -10.672668 5.115898 8.346883 1.353636 -19.983520 -76.408951 16.782664 -6.448147 112.390005 1.979589 -0.454352 -0.104735 0.838730 -0.024802 -45.687127 13.685551 -4.444466 1.822131 -13.389940 13.626705 -35.252640 -23.060286 3.111596 142.575590 -2.405764 -1.084048 -4.214154 2.060164 0.096626 -66.769584 -6.931358 5.010259 -12.030342 -1.454869 0.285008 -2.315146 -4.632679 0.082985 5.285715 8.284076 -9.081932 -7.217500 -1.065306 -0.344926 0.677595 -0.039099 -0.048544 0.083820 13.987971 10.873063 1.104441 -13.356852 -54.721046 -63.119254 170.393880 -63.781895 -163.606807 29.185928 -13.700583 -3.794206 -0.298221 0.945911 0.088688 -0.003180 -0.035693 0.074422 -0.088568 0.121234 -0.080942 -2.214882 -26.808744 -3.512135 34.854405 35.812477 -46.897544 178.382981 46.686539 179.885494 -25.030684 18.366712 -4.327226 0.454233 -1.094097 -0.101723 0.020977 -0.025950 -0.037720 -0.011119 0.026826 -0.045888 
0.091321 23.671916 -8.759236 4.157958 2.181617 19.247748 -10.978187 4.766709 7.386898 2.019940 -20.972622 -80.315493 15.074491 -9.756128 116.185995 2.370807 -1.208375 -3.379025 0.445942 -0.061524 -45.915356 13.945335 -4.852305 2.324634 -17.133943 15.965004 -41.245936 -23.106328 6.879008 146.463076 -2.773322 -3.295245 -6.797143 2.326087 0.080628 -64.872029 -5.850876 2.801022 -10.315780 -0.975596 -0.285883 -2.724711 -4.566405 0.179805 5.701834 7.909509 -10.163533 -6.951179 -0.739411 -0.283728 0.391701 -0.034332 -0.054401 0.089921 14.169879 11.975855 0.770392 -0.929635 -49.959104 -77.247181 175.191965 -60.424928 -169.178435 28.504600 -14.012016 -3.791967 -0.345259 1.069355 0.084265 0.002943 -0.036640 0.075896 -0.085918 0.115682 -0.077462 -1.629975 -27.705377 -2.811050 29.283318 31.108218 -52.201346 178.363366 46.037030 179.693252 -24.525571 18.854400 -4.371082 0.464281 -1.115755 -0.096846 0.018856 -0.033159 -0.029788 -0.004608 0.025987 -0.054623 
0.094180 23.690665 -8.222143 2.805533 2.837197 19.052119 -10.523806 4.812074 5.929793 1.080881 -21.165687 -77.836653 11.024741 -11.427673 110.223537 2.473312 -0.878977 -0.969912 0.272295 -0.073730 -48.170709 13.738289 -5.462825 3.472263 -18.920106 19.880928 -44.815251 -22.723533 6.981911 135.764001 -2.792486 -5.456135 -5.682660 2.247220 0.097568 -64.710137 -3.404703 1.594022 -10.329055 -1.097652 0.669940 -3.067558 -4.931085 -0.451296 6.491630 8.000147 -11.463102 -7.444782 -0.524442 -0.254943 0.063043 -0.037219 -0.057130 0.095617 14.141252 12.862819 1.822869 6.847193 -46.326380 -83.159095 -177.930688 -55.301740 -176.798193 27.393904 -14.295960 -3.733919 -0.415168 1.098017 0.079008 0.002330 -0.040172 0.080974 -0.086878 0.101433 -0.075484 -1.472849 -27.358767 -0.050259 24.151622 25.669790 -56.684867 177.247153 47.785821 179.033093 -24.109359 19.377268 -4.451229 0.495824 -1.070389 -0.091095 0.022859 -0.038548 -0.029264 -0.001995 0.025733 -0.051562 
0.082173 23.644621 -7.635363 2.370609 4.096653 19.456414 -10.609457 4.015055 6.065840 -1.721198 -20.465037 -71.807307 7.341757 -14.314318 95.438591 1.796838 -1.940619 3.511912 0.620126 -0.050437 -50.728507 12.830170 -5.032327 4.646661 -16.198180 20.791031 -46.451604 -20.920074 5.859481 115.241066 -2.982333 -7.904122 -2.358311 1.554464 0.103091 -63.273153 -1.441515 0.756792 -10.960364 -1.633130 0.352389 -3.051828 -5.100022 -0.118649 7.371946 6.820592 -12.608925 -6.985759 -0.527460 -0.242769 -0.017479 -0.037935 -0.055181 0.101358 13.541162 13.906125 1.733198 8.596565 -44.153519 -83.673592 -174.740491 -49.118989 178.202599 26.060400 -14.638009 -3.626295 -0.479684 1.057979 0.064594 0.007563 -0.037106 0.079984 -0.081288 0.081090 -0.065284 -3.144935 -28.929779 1.366659 22.221490 21.462299 -56.748089 177.653889 48.184715 -179.872245 -23.269917 19.317058 -4.295121 0.456357 -1.053266 -0.089227 0.035480 -0.042445 -0.027706 0.005689 0.013230 -0.050714 
